<svg xmlns="http://www.w3.org/2000/svg" xmlns:xlink="http://www.w3.org/1999/xlink" xmlns:inkscape="http://www.inkscape.org/namespaces/inkscape" version="1.1" width="165.21" height="128.36" viewBox="0 0 165.21 128.36">
<path transform="matrix(1,0,0,-1,79.769,99.615)" d="M14.17339 70.867C14.17339 78.69485 7.82784 85.0404 0 85.0404-7.82784 85.0404-14.17339 78.69485-14.17339 70.867-14.17339 63.03915-7.82784 56.69362 0 56.69362 7.82784 56.69362 14.17339 63.03915 14.17339 70.867ZM0 70.867" fill="#ccccff"/>
<path transform="matrix(1,0,0,-1,79.769,99.615)" stroke-width=".79701" stroke-linecap="butt" stroke-miterlimit="10" stroke-linejoin="miter" fill="none" stroke="#0000cc" d="M14.17339 70.867C14.17339 78.69485 7.82784 85.0404 0 85.0404-7.82784 85.0404-14.17339 78.69485-14.17339 70.867-14.17339 63.03915-7.82784 56.69362 0 56.69362 7.82784 56.69362 14.17339 63.03915 14.17339 70.867ZM0 70.867"/>
<text xml:space="preserve" transform="matrix(1 0 -0 1 69.26 4.7039949)" font-size="9.9626" font-family="LMSans10" font-weight="bold"><tspan y="27.611" x="7.769">1</tspan></text>
<path transform="matrix(1,0,0,-1,79.769,99.615)" d="M-36.85092 42.5202C-36.85092 50.34805-43.19647 56.6936-51.02432 56.6936-58.85217 56.6936-65.19772 50.34805-65.19772 42.5202-65.19772 34.69235-58.85217 28.3468-51.02432 28.3468-43.19647 28.3468-36.85092 34.69235-36.85092 42.5202ZM-51.02432 42.5202" fill="#ccccff"/>
<path transform="matrix(1,0,0,-1,79.769,99.615)" stroke-width=".79701" stroke-linecap="butt" stroke-miterlimit="10" stroke-linejoin="miter" fill="none" stroke="#0000cc" d="M-36.85092 42.5202C-36.85092 50.34805-43.19647 56.6936-51.02432 56.6936-58.85217 56.6936-65.19772 50.34805-65.19772 42.5202-65.19772 34.69235-58.85217 28.3468-51.02432 28.3468-43.19647 28.3468-36.85092 34.69235-36.85092 42.5202ZM-51.02432 42.5202"/>
<text xml:space="preserve" transform="matrix(1 0 -0 1 18.236 33.05)" font-size="9.9626" font-family="LMSans10" font-weight="bold"><tspan y="27.611" x="7.769">2</tspan></text>
<path transform="matrix(1,0,0,-1,79.769,99.615)" d="M70.867 70.867C70.867 78.69485 64.52145 85.0404 56.69362 85.0404 48.86577 85.0404 42.52022 78.69485 42.52022 70.867 42.52022 63.03915 48.86577 56.69362 56.69362 56.69362 64.52145 56.69362 70.867 63.03915 70.867 70.867ZM56.69362 70.867" fill="#ccccff"/>
<path transform="matrix(1,0,0,-1,79.769,99.615)" stroke-width=".79701" stroke-linecap="butt" stroke-miterlimit="10" stroke-linejoin="miter" fill="none" stroke="#0000cc" d="M70.867 70.867C70.867 78.69485 64.52145 85.0404 56.69362 85.0404 48.86577 85.0404 42.52022 78.69485 42.52022 70.867 42.52022 63.03915 48.86577 56.69362 56.69362 56.69362 64.52145 56.69362 70.867 63.03915 70.867 70.867ZM56.69362 70.867"/>
<text xml:space="preserve" transform="matrix(1 0 -0 1 125.953998 4.593994)" font-size="9.9626" font-family="LMSans10" font-weight="bold"><tspan y="27.611" x="7.769">3</tspan></text>
<path transform="matrix(1,0,0,-1,79.769,99.615)" d="M14.17339 0C14.17339 7.82784 7.82784 14.17339 0 14.17339-7.82784 14.17339-14.17339 7.82784-14.17339 0-14.17339-7.82784-7.82784-14.17339 0-14.17339 7.82784-14.17339 14.17339-7.82784 14.17339 0ZM0 0" fill="#ccccff"/>
<path transform="matrix(1,0,0,-1,79.769,99.615)" stroke-width=".79701" stroke-linecap="butt" stroke-miterlimit="10" stroke-linejoin="miter" fill="none" stroke="#0000cc" d="M14.17339 0C14.17339 7.82784 7.82784 14.17339 0 14.17339-7.82784 14.17339-14.17339 7.82784-14.17339 0-14.17339-7.82784-7.82784-14.17339 0-14.17339 7.82784-14.17339 14.17339-7.82784 14.17339 0ZM0 0"/>
<text xml:space="preserve" transform="matrix(1 0 -0 1 69.26 75.461)" font-size="9.9626" font-family="LMSans10" font-weight="bold"><tspan y="27.611" x="7.769">4</tspan></text>
<path transform="matrix(1,0,0,-1,79.769,99.615)" d="M70.867 0C70.867 7.82784 64.52145 14.17339 56.69362 14.17339 48.86577 14.17339 42.52022 7.82784 42.52022 0 42.52022-7.82784 48.86577-14.17339 56.69362-14.17339 64.52145-14.17339 70.867-7.82784 70.867 0ZM56.69362 0" fill="#ccccff"/>
<path transform="matrix(1,0,0,-1,79.769,99.615)" stroke-width=".79701" stroke-linecap="butt" stroke-miterlimit="10" stroke-linejoin="miter" fill="none" stroke="#0000cc" d="M70.867 0C70.867 7.82784 64.52145 14.17339 56.69362 14.17339 48.86577 14.17339 42.52022 7.82784 42.52022 0 42.52022-7.82784 48.86577-14.17339 56.69362-14.17339 64.52145-14.17339 70.867-7.82784 70.867 0ZM56.69362 0"/>
<text xml:space="preserve" transform="matrix(1 0 -0 1 125.953998 75.352)" font-size="9.9626" font-family="LMSans10" font-weight="bold"><tspan y="27.611" x="7.769">5</tspan></text>
<path transform="matrix(1,0,0,-1,79.769,99.615)" stroke-width=".79701" stroke-linecap="butt" stroke-miterlimit="10" stroke-linejoin="miter" fill="none" stroke="#000000" d="M-12.73795 63.7903-38.28638 49.59692"/>
<path transform="matrix(1,0,0,-1,79.769,99.615)" stroke-width=".79701" stroke-linecap="butt" stroke-miterlimit="10" stroke-linejoin="miter" fill="none" stroke="#000000" d="M14.5719 70.867H42.1217"/>
<path transform="matrix(1,0,0,-1,79.769,99.615)" stroke-width=".79701" stroke-linecap="butt" stroke-miterlimit="10" stroke-linejoin="miter" fill="none" stroke="#000000" d="M0 56.2951V14.5719"/>
<path transform="matrix(1,0,0,-1,79.769,99.615)" stroke-width=".79701" stroke-linecap="butt" stroke-miterlimit="10" stroke-linejoin="miter" fill="none" stroke="#000000" d="M9.10252 59.48895 47.59108 11.37805"/>
<path transform="matrix(1,0,0,-1,79.769,99.615)" stroke-width=".79701" stroke-linecap="butt" stroke-miterlimit="10" stroke-linejoin="miter" fill="none" stroke="#000000" d="M-39.83037 33.19197-11.19395 9.32822"/>
<path transform="matrix(1,0,0,-1,79.769,99.615)" stroke-width=".79701" stroke-linecap="butt" stroke-miterlimit="10" stroke-linejoin="miter" fill="none" stroke="#000000" d="M47.59108 59.48895 9.10252 11.37805"/>
<path transform="matrix(1,0,0,-1,79.769,99.615)" stroke-width=".79701" stroke-linecap="butt" stroke-miterlimit="10" stroke-linejoin="miter" fill="none" stroke="#000000" d="M56.69362 56.2951V14.5719"/>
<path transform="matrix(1,0,0,-1,79.769,99.615)" stroke-width=".79701" stroke-linecap="butt" stroke-miterlimit="10" stroke-linejoin="miter" fill="none" stroke="#000000" d="M14.5719 0H42.1217"/>
</svg>
